<svg width="800" height="800" viewBox="0 0 800 800" fill="none" xmlns="http://www.w3.org/2000/svg">
<path d="M400 790C615.391 790 790 615.391 790 400C790 184.609 615.391 10 400 10C184.609 10 10 184.609 10 400C10 480.644 34.4765 555.57 76.4059 617.756H245.215C260.085 617.756 277.989 617.301 298.929 616.391C339.29 614.266 359.471 599.093 359.471 570.87C359.471 554.786 351.429 535.516 335.345 513.059C328.669 503.348 312.433 483.167 286.638 452.517C259.933 419.742 242.18 394.402 233.379 376.498C224.275 357.682 219.723 337.35 219.723 315.5C219.723 291.526 224.73 268.007 234.745 244.943C244.759 221.88 259.022 200.485 277.534 180.759C296.653 160.73 319.261 142.977 345.36 127.5C397.86 96.5464 448.236 81.0694 496.488 81.0694C520.159 81.0694 540.339 84.711 557.03 91.9943C574.025 99.5811 587.225 110.051 596.633 123.403C605.737 137.06 610.289 152.84 610.289 170.745C610.289 187.739 605.434 208.679 595.723 233.563C587.225 254.199 577.514 275.442 566.589 297.292L559.761 310.948C552.478 325.211 546.105 334.619 540.643 339.171C534.877 344.026 527.29 346.454 517.883 346.454C506.958 346.454 498.005 342.964 491.025 335.984C483.742 329.005 480.1 320.963 480.1 311.858C480.1 305.182 481.77 297.747 485.108 289.553L492.846 272.711L506.047 242.667C514.544 223.245 520.462 208.982 523.8 199.878C526.531 191.988 527.897 185.16 527.897 179.394C527.897 163.613 517.579 155.723 496.943 155.723C477.521 155.723 454.609 161.337 428.207 172.566C399.984 184.401 377.072 197.905 359.471 213.079C322.751 243.122 304.391 274.228 304.391 306.396C304.391 318.231 307.729 330.37 314.406 342.812C320.779 355.862 332.766 372.552 350.367 392.885C377.376 425.053 396.646 449.482 408.178 466.173C420.924 484.988 429.876 501.831 435.035 516.701C440.498 532.481 443.229 548.717 443.229 565.408C443.229 590.596 437.918 612.597 427.297 631.413C416.675 650.531 400.743 665.705 379.5 676.933C369.182 682.699 359.168 686.796 349.457 689.224C339.746 691.651 327.758 693.472 313.495 694.686C300.143 695.9 280.417 696.507 254.319 696.507H146.644C214.798 754.798 303.288 790 400 790Z" fill="black"/>
</svg>
